<svg xmlns="http://www.w3.org/2000/svg" xmlns:xlink="http://www.w3.org/1999/xlink" version="1.0" x="0" y="0" width="2400" height="397.184517464163" viewBox="72.50638259887695 108.86543716430664 194.9872348022461 32.26912948608398" preserveAspectRatio="xMidYMid meet" color-interpolation-filters="sRGB"><g><defs><linearGradient id="92" x1="0%" y1="0%" x2="100%" y2="0%"><stop offset="0%" stop-color="#fa71cd"></stop> <stop offset="100%" stop-color="#9b59b6"></stop></linearGradient><linearGradient id="93" x1="0%" y1="0%" x2="100%" y2="0%"><stop offset="0%" stop-color="#f9d423"></stop> <stop offset="100%" stop-color="#f83600"></stop></linearGradient><linearGradient id="94" x1="0%" y1="0%" x2="100%" y2="0%"><stop offset="0%" stop-color="#0064d2"></stop> <stop offset="100%" stop-color="#1cb0f6"></stop></linearGradient><linearGradient id="95" x1="0%" y1="0%" x2="100%" y2="0%"><stop offset="0%" stop-color="#f00978"></stop> <stop offset="100%" stop-color="#3f51b1"></stop></linearGradient><linearGradient id="96" x1="0%" y1="0%" x2="100%" y2="0%"><stop offset="0%" stop-color="#7873f5"></stop> <stop offset="100%" stop-color="#ec77ab"></stop></linearGradient><linearGradient id="97" x1="0%" y1="0%" x2="100%" y2="0%"><stop offset="0%" stop-color="#f9d423"></stop> <stop offset="100%" stop-color="#e14fad"></stop></linearGradient><linearGradient id="98" x1="0%" y1="0%" x2="100%" y2="0%"><stop offset="0%" stop-color="#009efd"></stop> <stop offset="100%" stop-color="#2af598"></stop></linearGradient><linearGradient id="99" x1="0%" y1="0%" x2="100%" y2="0%"><stop offset="0%" stop-color="#ffcc00"></stop> <stop offset="100%" stop-color="#00b140"></stop></linearGradient><linearGradient id="100" x1="0%" y1="0%" x2="100%" y2="0%"><stop offset="0%" stop-color="#d51007"></stop> <stop offset="100%" stop-color="#ff8177"></stop></linearGradient><linearGradient id="102" x1="0%" y1="0%" x2="100%" y2="0%"><stop offset="0%" stop-color="#a2b6df"></stop> <stop offset="100%" stop-color="#0c3483"></stop></linearGradient><linearGradient id="103" x1="0%" y1="0%" x2="100%" y2="0%"><stop offset="0%" stop-color="#7ac5d8"></stop> <stop offset="100%" stop-color="#eea2a2"></stop></linearGradient><linearGradient id="104" x1="0%" y1="0%" x2="100%" y2="0%"><stop offset="0%" stop-color="#00ecbc"></stop> <stop offset="100%" stop-color="#007adf"></stop></linearGradient><linearGradient id="105" x1="0%" y1="0%" x2="100%" y2="0%"><stop offset="0%" stop-color="#b88746"></stop> <stop offset="100%" stop-color="#fdf5a6"></stop></linearGradient></defs><g fill="#fff" class="icon-text-wrapper icon-svg-group iconsvg" transform="translate(74.41802215576172,110.77707481384277)"><g class="iconsvg-imagesvg" transform="translate(0,0)"><g><rect fill="#fff" fill-opacity="0" stroke-width="2" x="0" y="0" width="28.799999999999976" height="28.445849177737145" class="image-rect"></rect> <svg filter="url(#colors980268312)" x="0" y="0" width="28.799999999999976" height="28.445849177737145" filtersec="colorsf5122564347" class="image-svg-svg primary" style="overflow: visible;"><svg xmlns="http://www.w3.org/2000/svg" xmlns:xlink="http://www.w3.org/1999/xlink" version="1.1" x="0px" y="0px" viewBox="4.9948272705078125 5.625 89.88018035888672 88.7750015258789" xml:space="preserve"><path d="M55.4,43.5c-0.6,0-1.3-0.2-1.7-0.7c-5.9-6.1-2.3-12.9,0.4-15.7L74.9,6.3c0.9-0.9,2.5-0.9,3.4,0c0.9,0.9,0.9,2.5,0,3.4  L57.5,30.6c-0.7,0.8-4.3,4.8-0.4,8.9c0.9,1,0.9,2.5,0,3.4C56.6,43.3,56,43.5,55.4,43.5z"></path><path d="M17.6,92.5c-1.9,0-3.8-0.7-5.3-2.6c-3.1-3.9-1.4-8.1,0.6-9.9l32.9-34.6L39.2,39c-0.7-0.6-0.9-1.6-0.6-2.5  c0.1-0.3,2.4-8-5.8-16.7c-4.4-4.7-12.9-11.7-20.2-5.1c-1.7,1.5-2.7,4-2.8,6.8c-0.1,3.2,1,8.3,6.9,14.2c8.9,8.9,15.4,5.6,15.7,5.4  c0.9-0.5,2.1-0.4,2.9,0.4l5.1,4.9c1,0.9,1,2.5,0.1,3.4c-0.9,1-2.5,1-3.4,0.1L33,46c-3.3,1-10.9,1.9-19.7-7C6.2,31.9,4.9,25.5,5,21.3  c0.1-4.1,1.7-7.8,4.4-10.2c7.4-6.7,17.5-4.6,26.9,5.4c8,8.5,7.8,16.7,7.2,20l7.3,7.1c0.9,0.9,1,2.4,0.1,3.4L16.2,83.4  c-0.6,0.6-1.4,1.9-0.2,3.5c1.2,1.6,3.5,0.3,4.1-0.1l39.3-41.1c0.8-0.9,2.1-1,3.1-0.3c2.1,1.4,6.1-0.9,7.5-1.9l20.8-20.8  c0.9-0.9,2.5-0.9,3.4,0c0.9,0.9,0.9,2.5,0,3.4L73.4,47.1c-0.1,0.1-0.1,0.1-0.2,0.2c-0.7,0.5-6.3,4.7-11.4,3.1l-38.3,40  c-0.1,0.1-0.2,0.2-0.4,0.3C21.9,91.5,19.8,92.5,17.6,92.5z"></path><path d="M83.1,94.4c-0.1,0-0.2,0-0.3,0c-3.1-0.1-5.3-2.6-5.8-3.1l-25.1-26c-0.9-1-0.9-2.5,0.1-3.4c1-0.9,2.5-0.9,3.4,0.1L80.6,88  c0,0,0.1,0.1,0.1,0.1c0.4,0.4,1.5,1.4,2.4,1.4c0.2,0,0.6,0,1.3-0.7c1.7-1.7,0.7-3.4,0.2-4L58.7,57.6c-0.9-1-0.9-2.5,0.1-3.4  c1-0.9,2.5-0.9,3.4,0.1l25.9,27.4c2,2.3,3.4,6.9-0.4,10.7C86.1,94,84.4,94.4,83.1,94.4z"></path><path d="M63.5,33.5c-0.4,0-0.8-0.2-1.2-0.5c-0.6-0.6-0.6-1.7,0-2.3l19.4-18.8c0.6-0.6,1.7-0.6,2.3,0c0.6,0.6,0.6,1.7,0,2.3  L64.6,33.1C64.3,33.4,63.9,33.5,63.5,33.5z"></path><path d="M68.5,38.6c-0.4,0-0.8-0.2-1.2-0.5c-0.6-0.6-0.6-1.7,0-2.3L86.9,17c0.6-0.6,1.7-0.6,2.3,0c0.6,0.6,0.6,1.7,0,2.3L69.7,38.1  C69.4,38.5,68.9,38.6,68.5,38.6z"></path><path d="M27.6,39.5c-5.3,0-9.9-5.9-10.2-6.2c-0.5-0.7-0.4-1.7,0.3-2.3c0.7-0.5,1.7-0.4,2.3,0.3c0.1,0.1,5.6,7.1,9.7,4.3  c0.7-0.5,1.7-0.3,2.2,0.4c0.5,0.7,0.3,1.7-0.4,2.2C30.2,39.1,28.9,39.5,27.6,39.5z"></path></svg></svg> <defs><filter id="colors980268312"><feColorMatrix type="matrix" values="0 0 0 0 0.99609375  0 0 0 0 0.99609375  0 0 0 0 0.99609375  0 0 0 1 0" class="icon-feColorMatrix "></feColorMatrix></filter> <filter id="colorsf5122564347"><feColorMatrix type="matrix" values="0 0 0 0 0.99609375  0 0 0 0 0.99609375  0 0 0 0 0.99609375  0 0 0 1 0" class="icon-fecolormatrix"></feColorMatrix></filter> <filter id="colorsb3152304638"><feColorMatrix type="matrix" values="0 0 0 0 0  0 0 0 0 0  0 0 0 0 0  0 0 0 1 0" class="icon-fecolormatrix"></feColorMatrix></filter></defs></g></g> <g transform="translate(35.636037826538086,8.445850372314453)"><g fill-rule="" class="tp-name iconsvg-namesvg"><g transform="scale(0.8599999999999999)"><g><path d="M4.98 0.8C5.91 0.8 6.72 0.56 7.43 0.24 7.55 0.41 7.76 0.51 8.01 0.51 8.38 0.51 8.85 0.31 9.23-0.14 9.5-0.43 10.1-1.16 10.2-2.39 10.35-4.48 9.15-5.06 7.43-5.06 7-5.06 6.08-4.95 5.8-4.52 5.42-3.97 5.68-3.26 6.25-3.26 6.29-3.26 6.33-3.26 6.37-3.27 6.47-3.29 6.58-3.3 6.69-3.3 6.99-3.3 7.28-3.2 7.24-2.79 7.17-2.08 6.33-1.81 5.67-1.81 4.02-1.81 3.94-3.9 4.13-5.21 4.38-6.76 5.68-9.21 7.5-9.21 8.14-9.21 8.66-8.89 7.98-8.28 7.93-8.23 7.23-7.85 7.31-6.97 7.36-6.42 7.97-6.05 8.48-6.05 9.42-6.04 10.67-6.78 10.86-8.21 11.16-10.29 9.76-11.72 7.34-11.72 3.42-11.72 1.1-9.57 0.56-5.92 0.08-2.74 1.26 0.8 4.98 0.8ZM18.68 0.1C20.21 0.01 20.78-1.23 21.44-2.51 21.76-3.08 21.95-3.59 22.01-4.05 22.05-4.3 22.05-4.53 22.01-4.73 22-4.8 21.94-4.87 21.86-4.87 21.84-4.87 21.82-4.86 21.8-4.85 21.74-4.81 21.7-4.74 21.69-4.69 21.44-4.06 21.14-3.57 20.77-3.21 20.54-2.98 20.23-2.71 19.89-2.71 19.43-2.74 19.47-3.22 19.53-3.57L20.23-7.01C20.44-8.06 19.88-8.75 18.83-8.75 16.98-8.75 16.98-7.62 16.88-6.67 16.73-5.71 16.23-4.33 15.6-3.48 15.38-3.2 15.15-3.05 14.95-3.05 14.18-3.05 14.82-6.7 15.08-7.55 15.36-8.52 14.08-8.71 13.6-8.73 12.88-8.73 12.25-8.33 12.05-7.62 11.84-6.9 11.68-6.18 11.57-5.45 11.36-4 11.28-2.42 11.93-1.18 12.34-0.38 13.16-0.02 14.02-0.02 15.29-0.02 15.95-1 16.48-1.94 16.53-0.79 17.29 0.1 18.54 0.1 18.58 0.1 18.63 0.1 18.68 0.1ZM32.18 0.05L32.31 0.04C32.85 0.01 33.38-0.18 33.92-0.51 34.99-1.25 35.96-2.82 36.15-4.04 36.18-4.26 36.19-4.47 36.17-4.65 36.17-4.7 36.16-4.76 36.13-4.79 36.12-4.81 36.1-4.82 36.1-4.84 36.07-4.86 36.04-4.87 36-4.87 35.98-4.87 35.96-4.86 35.94-4.85 35.88-4.81 35.85-4.75 35.84-4.69 35.61-4.1 35.32-3.63 34.97-3.28 34.62-2.9 34.3-2.71 34.03-2.71 33.86-2.71 33.74-2.78 33.71-2.94 33.67-3.09 33.66-3.27 33.68-3.47L33.71-3.77 33.86-4.65C34.04-5.86 34.2-7.38 33.55-8.34 33.22-8.82 32.6-9.09 31.69-9.14 30.49-9.14 29.65-8.25 29.09-7.21 28.75-8.16 28.06-8.69 27.02-8.79 26.54-8.79 26.09-8.66 25.74-8.41 25.38-8.78 25.08-9.13 24.08-9.13 22.92-9.13 21.91-8.66 21.77-7.37L21.17-1.63C21.07-0.77 21.53-0.25 22.34-0.25 22.43-0.25 22.53-0.26 22.62-0.27L22.85-0.3C23.68-0.42 24.35-1.05 24.51-1.88L24.81-3.5C24.93-4.02 25.33-5.76 26.04-5.84 26.58-5.78 26.37-4.03 26.32-3.64 26.22-2.78 25.99-2.29 25.95-1.44 25.91-0.59 26.51-0.22 27.16-0.22 27.82-0.22 28.53-0.58 28.71-1.21 28.97-2.02 29.14-2.85 29.27-3.67 29.4-4.35 29.57-4.94 29.78-5.43 29.98-5.93 30.22-6.18 30.52-6.18 30.96-6.1 30.84-4.61 30.81-4.25 30.77-3.76 30.73-3.34 30.68-2.97L30.64-2.61C30.57-1.62 30.69-0.93 31.02-0.52 31.32-0.15 31.7 0.05 32.18 0.05ZM46.32 0.05L46.45 0.04C46.99 0.01 47.52-0.18 48.06-0.51 49.14-1.25 50.1-2.82 50.29-4.04 50.32-4.26 50.33-4.47 50.31-4.65 50.31-4.7 50.3-4.76 50.27-4.79 50.26-4.81 50.24-4.82 50.24-4.84 50.21-4.86 50.18-4.87 50.14-4.87 50.12-4.87 50.1-4.86 50.08-4.85 50.02-4.81 49.99-4.75 49.98-4.69 49.76-4.1 49.46-3.63 49.12-3.28 48.76-2.9 48.44-2.71 48.17-2.71 48-2.71 47.89-2.78 47.86-2.94 47.81-3.09 47.8-3.27 47.82-3.47L47.85-3.77 48-4.65C48.18-5.86 48.34-7.38 47.69-8.34 47.36-8.82 46.74-9.09 45.83-9.14 44.63-9.14 43.79-8.25 43.23-7.21 42.89-8.16 42.2-8.69 41.16-8.79 40.68-8.79 40.23-8.66 39.89-8.41 39.52-8.78 39.23-9.13 38.22-9.13 37.06-9.13 36.05-8.66 35.91-7.37L35.31-1.63C35.21-0.77 35.67-0.25 36.48-0.25 36.57-0.25 36.67-0.26 36.77-0.27L36.99-0.3C37.82-0.42 38.49-1.05 38.66-1.88L38.95-3.5C39.07-4.02 39.47-5.76 40.18-5.84 40.72-5.78 40.52-4.03 40.47-3.64 40.36-2.78 40.13-2.29 40.09-1.44 40.05-0.59 40.65-0.22 41.3-0.22 41.96-0.22 42.67-0.58 42.85-1.21 43.11-2.02 43.28-2.85 43.41-3.67 43.55-4.35 43.71-4.94 43.92-5.43 44.12-5.93 44.36-6.18 44.66-6.18 45.1-6.1 44.98-4.61 44.95-4.25 44.91-3.76 44.87-3.34 44.83-2.97L44.79-2.61C44.71-1.62 44.84-0.93 45.16-0.52 45.46-0.15 45.84 0.05 46.32 0.05ZM52.82 0.21C55.62 0.24 57.39-1.52 57.92-4.17 57.95-4.4 57.97-4.59 57.94-4.73 57.93-4.78 57.9-4.81 57.88-4.84 57.85-4.86 57.83-4.87 57.79-4.87 57.77-4.87 57.75-4.86 57.73-4.85 57.67-4.81 57.64-4.75 57.63-4.69 57.08-3.37 55.46-2.09 54.06-2.09 52.88-2.09 52.39-3.12 52.55-4.19L52.56-4.28C52.79-3.86 53.36-3.65 54.01-3.65 55.02-3.65 56.21-4.14 56.63-5.09 57.37-6.76 56.41-8.96 53.72-8.96L53.43-8.95C51.24-8.75 50.03-6.97 49.72-4.98 49.35-2.67 50.25 0.21 52.82 0.21ZM52.74-5.12C52.89-5.62 53.23-6.4 53.82-6.53 53.88-6.55 53.94-6.56 53.99-6.56 54.53-6.56 54.72-5.8 54.63-5.39 54.55-5.02 54.15-4.82 53.71-4.82 53.39-4.82 53.03-4.92 52.74-5.12ZM58.41-0.27C59.01-0.27 59.93-0.47 60.12-1.42L60.3-2.34C60.48-3.25 61.04-5.79 62.4-5.79 62.59-5.79 62.92-5.79 63.15-5.75 63.22-5.74 63.28-5.73 63.34-5.73 64.65-5.73 65.13-8.26 64.01-8.54 63.73-8.61 63.45-8.64 63.2-8.64 62.52-8.64 61.91-8.42 61.38-7.98 61.43-8.83 60.47-8.97 59.61-8.97 59.52-8.97 59.43-8.97 59.34-8.97 58.33-8.95 57.72-8.01 57.62-7L57.04-1.56C56.94-0.66 57.48-0.27 58.41-0.27ZM64.93-3.02C64.89-3.02 64.86-3.02 64.82-3.02 64.14-3.02 63.36-2.58 63.54-1.82 63.89-0.27 65.13 0.26 66.57 0.26 68.15 0.26 69.97-0.84 70.22-2.53 70.25-2.74 70.27-2.96 70.22-3.16 69.9-4.87 67.23-5.78 67.32-6.39 67.36-6.62 67.68-6.7 67.86-6.73 68.2-6.73 68.58-6.5 68.67-6.19 68.78-5.78 69.43-5.59 69.75-5.59 69.79-5.59 69.81-5.6 69.84-5.6 70.47-5.68 70.86-6.59 70.79-7.18 70.62-8.43 69.71-9.13 68.44-9.13 67.31-9.13 66.13-8.71 65.35-7.73 65.03-7.32 64.8-6.88 64.74-6.41 64.54-4.47 65.95-4.17 67-3.13 67.18-2.94 67.32-2.7 67.31-2.45 67.29-2.08 66.87-1.84 66.56-1.83 66-1.81 65.73-2.96 64.93-3.02ZM72.23-0.12C72.75-0.12 73.88-0.3 73.88-0.98 74.33-0.62 74.88-0.44 75.49-0.44 77.38-0.44 78.99-2.27 79.36-4.69 79.7-7.04 78.7-8.96 76.76-8.96 76.24-8.96 75.73-8.82 75.23-8.55L75.59-10.49C75.77-11.52 75.22-12.2 74.21-12.2 74.17-12.2 74.14-12.2 74.1-12.2L73.77-12.19C72.76-12.15 72.03-11.45 71.91-10.46L70.93-1.57C70.83-0.67 71.27-0.17 72.23-0.12ZM75.28-2.6C74.35-2.6 74.42-3.89 74.53-4.59L74.59-5C74.73-5.63 75-6.55 75.81-6.55 76.62-6.55 76.58-5.15 76.49-4.5 76.4-3.94 76.07-2.6 75.28-2.6ZM86.49 0.05C88.31 0.05 89.83-1.77 90.09-4.05 90.12-4.3 90.13-4.53 90.1-4.73 90.09-4.8 90.02-4.87 89.95-4.87 89.93-4.87 89.91-4.86 89.89-4.85 89.83-4.81 89.79-4.74 89.78-4.69 89.53-4.06 89.23-3.57 88.86-3.21 88.52-2.87 88.22-2.71 87.98-2.71 87.52-2.76 87.57-3.22 87.62-3.57L88.33-7.12C88.52-8.06 87.97-9.08 87.06-9.23 86.94-9.25 86.81-9.26 86.67-9.26 86.04-9.26 85.32-9.02 85.15-8.38 84.75-8.62 84.31-8.74 83.81-8.74 81.59-8.74 80.24-6.4 79.96-4.49 79.67-2.57 80.27 0 82.48 0 83.24 0 84.14-0.33 84.7-1.04 84.95-0.37 85.75 0.05 86.49 0.05ZM83.39-2.39C83.35-2.38 83.31-2.38 83.27-2.38 82.46-2.38 82.66-3.73 82.76-4.31 82.84-4.88 83.49-6.3 84.3-6.31 85.03-6.32 84.91-4.98 84.76-4.37 84.46-3.14 83.96-2.47 83.39-2.39ZM97.5-4.17L97.51-4.28C97.54-4.46 97.54-4.62 97.52-4.73 97.5-4.81 97.45-4.87 97.38-4.87 97.36-4.87 97.34-4.86 97.32-4.85 97.31-4.85 97.31-4.85 97.3-4.84 97.25-4.81 97.22-4.74 97.21-4.69 96.78-3.67 95.34-2.13 94.14-2.13 92.8-2.13 92.35-3.47 92.47-4.49 92.55-5.28 92.85-6.46 93.76-6.57 94.14-6.57 94.3-6.23 94.36-5.9 94.41-5.61 94.7-5.26 95-5.23 95.07-5.22 95.14-5.22 95.21-5.22 96.05-5.22 96.45-5.8 96.4-6.62 96.31-8.38 95.09-8.96 93.62-8.96 93.49-8.96 93.35-8.96 93.21-8.95 91.08-8.81 89.84-6.66 89.56-4.77 89.2-2.3 90.36 0.26 93.05 0.24 95.97 0.21 96.99-1.55 97.5-4.17ZM103.42 0.05L103.55 0.04C105.04-0.04 106.15-1.2 106.83-2.51 107.14-3.08 107.32-3.59 107.39-4.05 107.43-4.3 107.43-4.53 107.4-4.73 107.39-4.8 107.32-4.87 107.25-4.87 107.23-4.87 107.21-4.86 107.19-4.85 107.13-4.81 107.09-4.74 107.08-4.69 106.85-4.1 106.57-3.63 106.22-3.28 105.86-2.9 105.54-2.71 105.27-2.71 104.81-2.75 104.89-3.37 104.95-3.72L105-3.99 105.04-4.27C105.27-6.2 105.16-8.48 102.95-8.76 102.9-8.77 102.82-8.77 102.76-8.77 102.05-8.74 101.46-8.47 100.99-7.96L101.67-11.17C101.96-12.56 101.03-12.87 99.96-12.87 99.88-12.87 99.79-12.86 99.7-12.86 98.69-12.82 97.96-12.13 97.84-11.14L96.6-1.65C96.47-0.68 96.94 0.2 97.95 0.24 99.24 0.24 99.64-0.4 99.85-1.58L100-2.51C100.14-3.12 100.79-5.81 101.68-5.81 101.81-5.81 101.91-5.71 101.97-5.49 102.08-4.94 102.05-4.32 102-3.74L101.89-2.61C101.81-1.62 101.93-0.93 102.27-0.52 102.56-0.15 102.95 0.05 103.42 0.05ZM112.71-3.72C112.8-4.25 112.51-4.61 111.98-4.61 111.97-4.61 111.97-4.61 111.96-4.61L108.18-4.57C107.66-4.56 107.27-4.21 107.2-3.7 107.12-3.18 107.41-2.83 107.94-2.83L111.65-2.82C112.2-2.82 112.61-3.18 112.71-3.72ZM113.95 0.62L116.14 0.46C116.68 0.42 117.24 0.17 117.5-0.32 117.74-0.78 117.48-1.34 116.68-1.42L118.24-9.85 118.76-9.88C119.07-9.9 119.53-10.21 119.59-10.52 119.69-11.14 119.54-11.71 118.69-11.77L115.7-12.01C115.6-12.02 115.5-12.02 115.41-12.02 114.35-12.02 113.99-11.44 113.86-10.56 113.76-9.92 114.47-9.66 114.94-9.66 114.96-9.66 114.97-9.66 114.99-9.66L113.9-1.5C113.15-1.41 112.81-1.28 112.66-0.57 112.53 0.07 113.22 0.62 113.87 0.62 113.89 0.62 113.92 0.62 113.95 0.62ZM130.23 0.05L130.36 0.04C130.9 0.01 131.44-0.18 131.98-0.51 133.05-1.25 134.01-2.82 134.2-4.04 134.23-4.26 134.24-4.47 134.22-4.65 134.22-4.7 134.21-4.76 134.18-4.79 134.17-4.81 134.15-4.82 134.15-4.84 134.12-4.86 134.09-4.87 134.05-4.87 134.03-4.87 134.01-4.86 133.99-4.85 133.93-4.81 133.91-4.75 133.9-4.69 133.67-4.1 133.37-3.63 133.03-3.28 132.68-2.9 132.35-2.71 132.08-2.71 131.92-2.71 131.8-2.78 131.77-2.94 131.72-3.09 131.71-3.27 131.73-3.47L131.76-3.77 131.92-4.65C132.09-5.86 132.25-7.38 131.6-8.34 131.28-8.82 130.66-9.09 129.74-9.14 128.54-9.14 127.71-8.25 127.14-7.21 126.8-8.16 126.11-8.69 125.08-8.79 124.6-8.79 124.14-8.66 123.8-8.41 123.43-8.78 123.14-9.13 122.14-9.13 120.97-9.13 119.96-8.66 119.82-7.37L119.22-1.63C119.12-0.77 119.59-0.25 120.39-0.25 120.48-0.25 120.58-0.26 120.68-0.27L120.91-0.3C121.73-0.42 122.4-1.05 122.57-1.88L122.86-3.5C122.98-4.02 123.39-5.76 124.09-5.84 124.64-5.78 124.43-4.03 124.38-3.64 124.27-2.78 124.04-2.29 124.01-1.44 123.97-0.59 124.57-0.22 125.22-0.22 125.88-0.22 126.58-0.58 126.76-1.21 127.03-2.02 127.19-2.85 127.32-3.67 127.46-4.35 127.63-4.94 127.83-5.43 128.03-5.93 128.28-6.18 128.57-6.18 129.01-6.1 128.9-4.61 128.87-4.25 128.83-3.76 128.79-3.34 128.74-2.97L128.7-2.61C128.62-1.62 128.75-0.93 129.07-0.52 129.38-0.15 129.75 0.05 130.23 0.05ZM134.62-0.12C135.15-0.12 136.27-0.3 136.27-0.98 136.72-0.62 137.27-0.44 137.88-0.44 139.77-0.44 141.38-2.27 141.75-4.69 142.09-7.04 141.09-8.96 139.15-8.96 138.63-8.96 138.12-8.82 137.63-8.55L137.98-10.49C138.16-11.52 137.62-12.2 136.6-12.2 136.56-12.2 136.53-12.2 136.49-12.2L136.16-12.19C135.15-12.15 134.42-11.45 134.3-10.46L133.32-1.57C133.23-0.67 133.66-0.17 134.62-0.12ZM137.67-2.6C136.74-2.6 136.81-3.89 136.92-4.59L136.99-5C137.12-5.63 137.39-6.55 138.21-6.55 139.01-6.55 138.97-5.15 138.88-4.5 138.8-3.94 138.46-2.6 137.67-2.6ZM145.13-9.26C145.88-9.31 146.61-9.64 146.74-10.48L146.75-10.57C146.81-10.94 146.74-11.28 146.54-11.58 146.32-11.91 145.86-12.08 145.14-12.09 144.23-12.07 143.16-11.85 142.99-10.75 142.8-9.52 144.04-9.26 145.02-9.26ZM143.76 0.05C143.87 0.07 143.98 0.08 144.1 0.08 145.89 0.08 147.45-2.19 147.72-4.04 147.75-4.26 147.76-4.47 147.74-4.65 147.74-4.7 147.73-4.76 147.7-4.79 147.69-4.81 147.67-4.82 147.67-4.84 147.64-4.86 147.61-4.87 147.57-4.87 147.55-4.87 147.53-4.86 147.52-4.85 147.46-4.81 147.43-4.75 147.42-4.69 147.17-4.06 146.86-3.57 146.49-3.21 146.26-2.97 145.96-2.71 145.61-2.71 145.13-2.74 145.21-3.29 145.26-3.63L145.9-6.76C146.09-7.71 145.61-8.4 144.68-8.51L144.5-8.53C144.43-8.54 144.34-8.54 144.26-8.54 143.36-8.54 142.71-7.94 142.62-6.98 142.46-5.14 141.06-0.39 143.76 0.05ZM147.39-3.02C147.35-3.02 147.32-3.02 147.28-3.02 146.6-3.02 145.81-2.58 146-1.82 146.34-0.27 147.58 0.26 149.03 0.26 150.61 0.26 152.43-0.84 152.68-2.53 152.71-2.74 152.73-2.96 152.68-3.16 152.36-4.87 149.69-5.78 149.78-6.39 149.82-6.62 150.13-6.7 150.32-6.73 150.65-6.73 151.04-6.5 151.13-6.19 151.24-5.78 151.88-5.59 152.21-5.59 152.25-5.59 152.27-5.6 152.3-5.6 152.93-5.68 153.32-6.59 153.24-7.18 153.08-8.43 152.17-9.13 150.9-9.13 149.77-9.13 148.59-8.71 147.81-7.73 147.49-7.32 147.26-6.88 147.2-6.41 146.99-4.47 148.41-4.17 149.45-3.13 149.64-2.94 149.78-2.7 149.77-2.45 149.75-2.08 149.33-1.84 149.02-1.83 148.46-1.81 148.18-2.96 147.39-3.02ZM153.93-3.02C153.89-3.02 153.86-3.02 153.82-3.02 153.14-3.02 152.36-2.58 152.54-1.82 152.89-0.27 154.13 0.26 155.57 0.26 157.15 0.26 158.97-0.84 159.23-2.53 159.26-2.74 159.28-2.96 159.23-3.16 158.9-4.87 156.23-5.78 156.32-6.39 156.36-6.62 156.68-6.7 156.86-6.73 157.2-6.73 157.58-6.5 157.67-6.19 157.78-5.78 158.43-5.59 158.75-5.59 158.79-5.59 158.81-5.6 158.84-5.6 159.47-5.68 159.87-6.59 159.79-7.18 159.62-8.43 158.71-9.13 157.44-9.13 156.31-9.13 155.13-8.71 154.35-7.73 154.03-7.32 153.8-6.88 153.74-6.41 153.54-4.47 154.95-4.17 156-3.13 156.19-2.94 156.32-2.7 156.31-2.45 156.29-2.08 155.87-1.84 155.57-1.83 155-1.81 154.73-2.96 153.93-3.02ZM161.4 0.16C161.94 0.12 162.27-0.26 162.35-0.78L162.36-0.84C162.45-1.54 162.23-2 161.49-2.02 160.8-2 160.31-1.7 160.2-0.98 160.08-0.18 160.58 0.16 161.31 0.16ZM169.71 0.04C171.22 0.04 172.39-1.2 173.08-2.51 173.38-3.08 173.56-3.59 173.63-4.04 173.66-4.26 173.67-4.47 173.65-4.65 173.65-4.7 173.64-4.76 173.61-4.79 173.6-4.81 173.58-4.82 173.58-4.84 173.55-4.86 173.52-4.86 173.5-4.86 173.48-4.86 173.46-4.86 173.44-4.85 173.43-4.85 173.43-4.84 173.42-4.84 173.37-4.81 173.34-4.75 173.33-4.69 173.1-4.1 172.82-3.63 172.47-3.28 172.11-2.9 171.78-2.72 171.52-2.71 171.26-2.71 171.13-2.93 171.15-3.39 171.18-3.8 171.23-4.25 171.3-4.72 171.37-5.17 171.46-5.63 171.55-6.12 171.83-7.58 172.15-9.04 172.47-10.5 172.63-11.27 172.23-11.78 171.46-11.78L170.55-11.79C169.72-11.79 169.09-11.23 168.98-10.39 168.93-9.96 168.87-9.5 168.79-8.99L168.72-8.53C168.3-8.82 167.83-8.96 167.29-8.96 165.07-8.96 163.71-6.6 163.43-4.69 163.13-2.77 163.81-0.44 166.02-0.44 166.78-0.44 167.5-0.72 168.18-1.27 168.38-0.48 168.83 0.04 169.71 0.04ZM166.87-2.6C166.1-2.6 166.13-3.88 166.23-4.5 166.31-5.08 166.7-6.55 167.52-6.55 168.45-6.55 168.32-5.26 168.22-4.59 168.11-3.89 167.82-2.6 166.87-2.6ZM176.16 0.21C178.97 0.24 180.74-1.52 181.27-4.17 181.3-4.4 181.32-4.59 181.29-4.73 181.28-4.78 181.25-4.81 181.23-4.84 181.2-4.86 181.17-4.87 181.13-4.87 181.11-4.87 181.09-4.86 181.07-4.85 181.01-4.81 180.98-4.75 180.97-4.69 180.42-3.37 178.81-2.09 177.4-2.09 176.22-2.09 175.74-3.12 175.9-4.19L175.91-4.28C176.13-3.86 176.7-3.65 177.35-3.65 178.37-3.65 179.56-4.14 179.98-5.09 180.72-6.76 179.75-8.96 177.07-8.96L176.77-8.95C174.59-8.75 173.38-6.97 173.06-4.98 172.7-2.67 173.59 0.21 176.16 0.21ZM176.08-5.12C176.24-5.62 176.58-6.4 177.17-6.53 177.22-6.55 177.28-6.56 177.33-6.56 177.87-6.56 178.06-5.8 177.97-5.39 177.89-5.02 177.5-4.82 177.06-4.82 176.73-4.82 176.38-4.92 176.08-5.12Z" transform="translate(-0.458420991897583, 12.869999885559082)"></path></g> </g></g> </g></g><defs v-gra="od"></defs></g></svg>